<svg width="100px" height="100px" viewBox="0 0 100 100" xmlns="http://www.w3.org/2000/svg" xmlns:xlink="http://www.w3.org/1999/xlink" aria-hidden="true" role="img" class="iconify iconify--gis" preserveAspectRatio="xMidYMid meet"><path d="M44 29.45c-6.89 0-12.55 5.658-12.55 12.548S37.11 54.551 44 54.551c6.655 0 12.112-5.297 12.48-11.865a3.5 3.5 0 0 0 .07-.688a3.5 3.5 0 0 0-.07-.691C56.11 34.74 50.653 29.449 44 29.449zm0 7c3.107 0 5.55 2.441 5.55 5.548s-2.443 5.553-5.55 5.553c-3.107 0-5.55-2.446-5.55-5.553c0-3.107 2.443-5.549 5.55-5.549zm24.969 19.417c-.92.04-1.837.195-2.727.465l1.16 3.828a7.136 7.136 0 0 1 4.616.188a2 2 0 0 0 .003.002c.471.185.922.423 1.34.705l2.235-3.319a11 11 0 0 0-2.108-1.107a11.003 11.003 0 0 0-4.52-.762zm-6.942 2.846a11.06 11.06 0 0 0-2.548 3.404v.002l-.002.002a11.001 11.001 0 0 0-1.077 5.322l3.994-.195a7.064 7.064 0 0 1 .686-3.389a2 2 0 0 0 0-.003a7.099 7.099 0 0 1 1.629-2.174zm16.895 2.53l-3.428 2.062a7.032 7.032 0 0 1 .99 3.42l.002.213l4-.051l-.004-.235a2 2 0 0 0 0-.021a10.978 10.978 0 0 0-1.56-5.389zm-3.113 8.687a7.129 7.129 0 0 1-2.862 3.097a2 2 0 0 0-.002 0a6.943 6.943 0 0 1-1.793.725l.96 3.883a10.95 10.95 0 0 0 2.824-1.137l.002-.002a11.051 11.051 0 0 0 4.49-4.861zm-12.594.3l-3.53 1.881a11.042 11.042 0 0 0 2.126 2.797h.002v.002a10.992 10.992 0 0 0 5.468 2.84l.768-3.926a7.062 7.062 0 0 1-3.475-1.806a2 2 0 0 0-.002-.002a7.076 7.076 0 0 1-1.357-1.786z" fill="currentColor"></path></svg>